REM DIRINDEX 1\2,1\3,1\4,1\5,1\6
REM DIRNAME cjc091,folder01,folder02,folder03,folder04,folder05
TITLE ""
FILE "CD2-50.mp3" MP3
  TRACK 01 AUDIO
    TITLE "6:cjc091_2498"
    INDEX 01 00:00:00
  TRACK 02 AUDIO
    TITLE "0:"
    INDEX 01 00:02:06
  TRACK 03 AUDIO
    TITLE "2:cjc091_2499"
    INDEX 01 00:03:23
  TRACK 04 AUDIO
    TITLE "0:"
    INDEX 01 00:04:40
  TRACK 05 AUDIO
    TITLE "3:cjc091_2500"
    INDEX 01 00:04:64
  TRACK 06 AUDIO
    TITLE "0:"
    INDEX 01 00:06:04
  TRACK 07 AUDIO
    TITLE "4:cjc091_2501"
    INDEX 01 00:06:26
  TRACK 08 AUDIO
    TITLE "0:"
    INDEX 01 00:09:26
  TRACK 09 AUDIO
    TITLE "2:cjc091_2502"
    INDEX 01 00:10:37
  TRACK 10 AUDIO
    TITLE "0:"
    INDEX 01 00:11:60
  TRACK 11 AUDIO
    TITLE "3:cjc091_2503"
    INDEX 01 00:11:64
  TRACK 12 AUDIO
    TITLE "0:"
    INDEX 01 00:12:71
  TRACK 13 AUDIO
    TITLE "4:cjc091_2504"
    INDEX 01 00:13:14
  TRACK 14 AUDIO
    TITLE "0:"
    INDEX 01 00:18:21
  TRACK 15 AUDIO
    TITLE "2:cjc091_2505"
    INDEX 01 00:19:36
  TRACK 16 AUDIO
    TITLE "0:"
    INDEX 01 00:20:49
  TRACK 17 AUDIO
    TITLE "3:cjc091_2506"
    INDEX 01 00:20:63
  TRACK 18 AUDIO
    TITLE "0:"
    INDEX 01 00:21:70
  TRACK 19 AUDIO
    TITLE "4:cjc091_2507"
    INDEX 01 00:22:15
  TRACK 20 AUDIO
    TITLE "0:"
    INDEX 01 00:25:07
  TRACK 21 AUDIO
    TITLE "2:cjc091_2508"
    INDEX 01 00:26:24
  TRACK 22 AUDIO
    TITLE "0:"
    INDEX 01 00:28:00
  TRACK 23 AUDIO
    TITLE "3:cjc091_2509"
    INDEX 01 00:28:06
  TRACK 24 AUDIO
    TITLE "0:"
    INDEX 01 00:29:09
  TRACK 25 AUDIO
    TITLE "4:cjc091_2510"
    INDEX 01 00:29:27
  TRACK 26 AUDIO
    TITLE "0:"
    INDEX 01 00:33:32
  TRACK 27 AUDIO
    TITLE "2:cjc091_2511"
    INDEX 01 00:34:40
  TRACK 28 AUDIO
    TITLE "0:"
    INDEX 01 00:35:45
  TRACK 29 AUDIO
    TITLE "3:cjc091_2512"
    INDEX 01 00:35:59
  TRACK 30 AUDIO
    TITLE "0:"
    INDEX 01 00:36:72
  TRACK 31 AUDIO
    TITLE "4:cjc091_2513"
    INDEX 01 00:37:18
  TRACK 32 AUDIO
    TITLE "0:"
    INDEX 01 00:42:31
  TRACK 33 AUDIO
    TITLE "2:cjc091_2514"
    INDEX 01 00:43:44
  TRACK 34 AUDIO
    TITLE "0:"
    INDEX 01 00:45:24
  TRACK 35 AUDIO
    TITLE "3:cjc091_2515"
    INDEX 01 00:45:41
  TRACK 36 AUDIO
    TITLE "0:"
    INDEX 01 00:47:54
  TRACK 37 AUDIO
    TITLE "4:cjc091_2516"
    INDEX 01 00:48:08
  TRACK 38 AUDIO
    TITLE "0:"
    INDEX 01 00:51:50
  TRACK 39 AUDIO
    TITLE "2:cjc091_2517"
    INDEX 01 00:52:59
  TRACK 40 AUDIO
    TITLE "0:"
    INDEX 01 00:55:22
  TRACK 41 AUDIO
    TITLE "3:cjc091_2518"
    INDEX 01 00:55:46
  TRACK 42 AUDIO
    TITLE "0:"
    INDEX 01 00:57:62
  TRACK 43 AUDIO
    TITLE "4:cjc091_2519"
    INDEX 01 00:58:09
  TRACK 44 AUDIO
    TITLE "0:"
    INDEX 01 01:00:72
  TRACK 45 AUDIO
    TITLE "2:cjc091_2520"
    INDEX 01 01:02:10
  TRACK 46 AUDIO
    TITLE "0:"
    INDEX 01 01:03:39
  TRACK 47 AUDIO
    TITLE "3:cjc091_2521"
    INDEX 01 01:03:43
  TRACK 48 AUDIO
    TITLE "0:"
    INDEX 01 01:04:54
  TRACK 49 AUDIO
    TITLE "4:cjc091_2522"
    INDEX 01 01:04:70
  TRACK 50 AUDIO
    TITLE "0:"
    INDEX 01 01:07:59
  TRACK 51 AUDIO
    TITLE "2:cjc091_2523"
    INDEX 01 01:08:74
  TRACK 52 AUDIO
    TITLE "0:"
    INDEX 01 01:10:39
  TRACK 53 AUDIO
    TITLE "3:cjc091_2524"
    INDEX 01 01:10:43
  TRACK 54 AUDIO
    TITLE "0:"
    INDEX 01 01:11:64
  TRACK 55 AUDIO
    TITLE "4:cjc091_2525"
    INDEX 01 01:12:19
  TRACK 56 AUDIO
    TITLE "0:"
    INDEX 01 01:15:35
  TRACK 57 AUDIO
    TITLE "2:cjc091_2526"
    INDEX 01 01:16:48
  TRACK 58 AUDIO
    TITLE "0:"
    INDEX 01 01:17:63
  TRACK 59 AUDIO
    TITLE "3:cjc091_2527"
    INDEX 01 01:18:04
  TRACK 60 AUDIO
    TITLE "0:"
    INDEX 01 01:19:54
  TRACK 61 AUDIO
    TITLE "4:cjc091_2528"
    INDEX 01 01:20:00
  TRACK 62 AUDIO
    TITLE "0:"
    INDEX 01 01:23:24
  TRACK 63 AUDIO
    TITLE "2:cjc091_2529"
    INDEX 01 01:24:34
  TRACK 64 AUDIO
    TITLE "0:"
    INDEX 01 01:25:53
  TRACK 65 AUDIO
    TITLE "3:cjc091_2530"
    INDEX 01 01:26:01
  TRACK 66 AUDIO
    TITLE "0:"
    INDEX 01 01:28:00
  TRACK 67 AUDIO
    TITLE "4:cjc091_2531"
    INDEX 01 01:28:20
  TRACK 68 AUDIO
    TITLE "0:"
    INDEX 01 01:31:24
  TRACK 69 AUDIO
    TITLE "2:cjc091_2532"
    INDEX 01 01:32:33
  TRACK 70 AUDIO
    TITLE "0:"
    INDEX 01 01:33:42
  TRACK 71 AUDIO
    TITLE "3:cjc091_2533"
    INDEX 01 01:33:54
  TRACK 72 AUDIO
    TITLE "0:"
    INDEX 01 01:35:47
  TRACK 73 AUDIO
    TITLE "4:cjc091_2534"
    INDEX 01 01:35:73
  TRACK 74 AUDIO
    TITLE "0:"
    INDEX 01 01:38:36
  TRACK 75 AUDIO
    TITLE "2:cjc091_2535"
    INDEX 01 01:39:51
  TRACK 76 AUDIO
    TITLE "0:"
    INDEX 01 01:41:24
  TRACK 77 AUDIO
    TITLE "3:cjc091_2536"
    INDEX 01 01:41:32
  TRACK 78 AUDIO
    TITLE "0:"
    INDEX 01 01:42:51
  TRACK 79 AUDIO
    TITLE "4:cjc091_2537"
    INDEX 01 01:43:00
  TRACK 80 AUDIO
    TITLE "0:"
    INDEX 01 01:47:15
  TRACK 81 AUDIO
    TITLE "2:cjc091_2538"
    INDEX 01 01:48:20
  TRACK 82 AUDIO
    TITLE "0:"
    INDEX 01 01:49:57
  TRACK 83 AUDIO
    TITLE "3:cjc091_2539"
    INDEX 01 01:49:71
  TRACK 84 AUDIO
    TITLE "0:"
    INDEX 01 01:51:48
  TRACK 85 AUDIO
    TITLE "4:cjc091_2540"
    INDEX 01 01:51:72
  TRACK 86 AUDIO
    TITLE "0:"
    INDEX 01 01:54:41
  TRACK 87 AUDIO
    TITLE "2:cjc091_2541"
    INDEX 01 01:55:60
  TRACK 88 AUDIO
    TITLE "0:"
    INDEX 01 01:57:02
  TRACK 89 AUDIO
    TITLE "3:cjc091_2542"
    INDEX 01 01:57:15
  TRACK 90 AUDIO
    TITLE "0:"
    INDEX 01 01:58:48
  TRACK 91 AUDIO
    TITLE "4:cjc091_2543"
    INDEX 01 01:58:70
  TRACK 92 AUDIO
    TITLE "0:"
    INDEX 01 02:03:04
